<?xml version="1.0" encoding="UTF-8"?>
<svg version="1.1" xmlns="http://www.w3.org/2000/svg" width="512" height="512">
<path d="M0 0 C0.81595642 -0.00979385 1.63191284 -0.01958771 2.47259521 -0.02967834 C20.09517996 -0.19760305 37.20012331 -0.22583699 54.375 4.23828125 C55.23383789 4.45790527 56.09267578 4.6775293 56.97753906 4.90380859 C105.20045609 17.58318741 146.36115776 47.91096781 171.98242188 90.79833984 C199.15900684 138.41453727 203.21898137 191.42840862 189.28466797 243.95849609 C177.18454297 287.58519477 156.04466586 328.46666057 131.375 366.23828125 C130.8814502 366.99447754 130.38790039 367.75067383 129.87939453 368.52978516 C122.62365111 379.60583214 115.11339419 390.49433943 107.375 401.23828125 C106.54331299 402.39312012 106.54331299 402.39312012 105.69482422 403.57128906 C98.03197725 414.17339909 90.0878836 424.47403548 81.75585938 434.55761719 C79.89280455 436.82516835 78.07062664 439.12409472 76.25 441.42578125 C71.89332472 446.88529692 67.37469905 452.20498736 62.84130859 457.51757812 C61.36557585 459.24934042 59.8953988 460.98570319 58.42578125 462.72265625 C52.49410275 469.71276469 46.41401211 476.53126256 40.16015625 483.234375 C37.76874075 485.80035817 35.44199528 488.41723254 33.125 491.05078125 C26.53644256 498.42165348 19.40501286 505.2924059 12.375 512.23828125 C8.73339901 510.70316302 6.41056785 508.51831471 3.63671875 505.73046875 C2.28223633 504.37308594 2.28223633 504.37308594 0.90039062 502.98828125 C0.20006714 502.27865234 0.20006714 502.27865234 -0.5144043 501.5546875 C-1.91734121 500.13369942 -3.32873493 498.72107682 -4.74023438 497.30859375 C-9.35468352 492.66462787 -13.84352737 487.96728949 -18.10717773 482.99902344 C-20.33836779 480.41074248 -22.670856 477.9262887 -25 475.42578125 C-29.24985297 470.82649593 -33.26076503 466.08740185 -37.1875 461.20703125 C-40.05426803 457.7154548 -43.02293318 454.32318578 -46 450.92578125 C-51.60891096 444.49892099 -56.93676281 437.90249013 -62.14453125 431.1484375 C-63.75134837 429.07526185 -65.37446191 427.01555691 -67 424.95703125 C-74.32722474 415.65456239 -81.33105569 406.19050065 -88.07568359 396.45849609 C-89.68635843 394.15035285 -91.31913602 391.85920849 -92.95703125 389.5703125 C-141.01796576 322.16678815 -185.35052834 238.65490847 -172.17285156 153.37988281 C-163.9472832 106.21116013 -136.84418867 61.97039386 -97.625 34.23828125 C-72.6553686 16.90191248 -45.61784691 6.0974755 -15.625 1.23828125 C-14.55950928 1.06321045 -13.49401855 0.88813965 -12.39624023 0.70776367 C-8.23902122 0.19023068 -4.18405338 0.04140257 0 0 Z M-20.625 54.23828125 C-21.42631348 54.45871094 -22.22762695 54.67914063 -23.05322266 54.90625 C-45.54918998 61.31550242 -64.63995943 72.14443108 -81.625 88.23828125 C-82.5221875 89.07101563 -83.419375 89.90375 -84.34375 90.76171875 C-109.28592764 114.65296194 -122.02976317 147.72937697 -123.8125 181.82421875 C-124.48928244 218.79345974 -110.01192756 253.80520704 -84.4921875 280.33984375 C-60.29847817 304.98010803 -26.59698832 319.97408074 8.02270508 320.47973633 C38.65565114 320.5757128 67.92887177 312.22589044 92.375 293.23828125 C93.33664062 292.49707031 94.29828125 291.75585938 95.2890625 290.9921875 C123.35438335 268.68682919 141.15667442 236.15103083 145.7109375 200.6171875 C149.06524812 169.38583593 141.84436306 135.96483686 123.375 110.23828125 C122.68277344 109.25085938 121.99054688 108.2634375 121.27734375 107.24609375 C101.63732228 80.42549682 75.32419715 63.02704089 43.375 54.23828125 C42.68325684 54.04621094 41.99151367 53.85414062 41.27880859 53.65625 C22.08383949 48.63093708 -1.52197143 48.93410933 -20.625 54.23828125 Z " fill="#000000" transform="translate(244.625,-0.23828125)"/>
<path d="M0 0 C0.93949493 -0.00686325 1.87898987 -0.0137265 2.84695435 -0.02079773 C5.92693556 -0.03897409 9.00640287 -0.03524097 12.08642578 -0.02954102 C14.2443966 -0.03410748 16.40236597 -0.03941444 18.56033325 -0.04542542 C23.07413658 -0.05433878 27.58776282 -0.05195389 32.1015625 -0.04199219 C37.86352724 -0.03051012 43.62487843 -0.05071187 49.38676262 -0.07990932 C53.84111362 -0.09832563 58.29531909 -0.09796794 62.74969864 -0.0922718 C64.87300603 -0.09211923 66.99632369 -0.09811056 69.11959457 -0.11056328 C94.00250171 -0.23594472 94.00250171 -0.23594472 101.36105347 6.38844299 C106.18471069 11.45851559 108.427644 16.07436792 108.35205078 23.14233398 C108.34238281 24.74238281 108.34238281 24.74238281 108.33251953 26.37475586 C108.30738281 28.02894531 108.30738281 28.02894531 108.28173828 29.71655273 C108.27271484 30.83868164 108.26369141 31.96081055 108.25439453 33.11694336 C108.23088314 35.87953183 108.19801983 38.64168205 108.15673828 41.40405273 C108.77162109 41.36924805 109.38650391 41.33444336 110.02001953 41.29858398 C110.82826172 41.27151367 111.63650391 41.24444336 112.46923828 41.21655273 C113.67 41.1643457 113.67 41.1643457 114.89501953 41.11108398 C117.72624041 41.47782244 118.39615251 42.20380097 120.15673828 44.40405273 C120.46737848 47.45226834 120.60086413 50.2918319 120.59033203 53.34155273 C120.59557388 54.21803467 120.60081573 55.0945166 120.60621643 55.99755859 C120.61263822 57.85016826 120.61129759 59.70281869 120.6027832 61.55541992 C120.59426927 64.39372114 120.62303739 67.23001275 120.65478516 70.06811523 C120.65639713 71.8675938 120.65581972 73.66707593 120.65283203 75.46655273 C120.66406601 76.31660889 120.67529999 77.16666504 120.68687439 78.04248047 C120.61878986 83.78277719 120.61878986 83.78277719 118.62573242 86.46264648 C116.15673828 87.40405273 116.15673828 87.40405273 108.15673828 87.40405273 C108.15673828 104.89405273 108.15673828 122.38405273 108.15673828 140.40405273 C105.84673828 140.40405273 103.53673828 140.40405273 101.15673828 140.40405273 C101.19154297 141.50104492 101.22634766 142.59803711 101.26220703 143.72827148 C101.29035694 145.18268319 101.31765581 146.63711154 101.34423828 148.09155273 C101.369375 148.8127832 101.39451172 149.53401367 101.42041016 150.27709961 C101.483229 154.86287545 101.10750935 157.82997272 98.15673828 161.40405273 C93.79106336 164.05086655 89.68694631 163.73538408 84.71923828 163.71655273 C83.44983398 163.74072266 83.44983398 163.74072266 82.15478516 163.76538086 C77.37727882 163.76912205 73.9491262 163.64110061 70.15673828 160.40405273 C68.15673828 156.40405273 68.15673828 156.40405273 68.15673828 140.40405273 C48.68673828 140.40405273 29.21673828 140.40405273 9.15673828 140.40405273 C9.15673828 146.01405273 9.15673828 151.62405273 9.15673828 157.40405273 C5.15673828 162.40405273 5.15673828 162.40405273 2.15673828 163.40405273 C-0.79727708 163.65279605 -3.75482939 163.63520738 -6.71826172 163.65405273 C-7.52134766 163.67467773 -8.32443359 163.69530273 -9.15185547 163.71655273 C-13.87747553 163.74769356 -17.02928343 163.50744192 -20.84326172 160.40405273 C-22.87446879 157.35724212 -23.08986047 156.8028695 -23.03857422 153.39233398 C-23.03212891 152.63500977 -23.02568359 151.87768555 -23.01904297 151.09741211 C-23.00228516 150.31172852 -22.98552734 149.52604492 -22.96826172 148.71655273 C-22.95923828 147.91926758 -22.95021484 147.12198242 -22.94091797 146.30053711 C-22.91737757 144.33491373 -22.88150719 142.36944498 -22.84326172 140.40405273 C-25.15326172 140.40405273 -27.46326172 140.40405273 -29.84326172 140.40405273 C-29.84326172 122.91405273 -29.84326172 105.42405273 -29.84326172 87.40405273 C-32.48326172 87.40405273 -35.12326172 87.40405273 -37.84326172 87.40405273 C-40.31225586 86.46264648 -40.31225586 86.46264648 -41.84326172 84.40405273 C-42.23546484 81.30459835 -42.38031154 78.56562945 -42.33935547 75.46655273 C-42.3408107 74.5900708 -42.34226593 73.71358887 -42.34376526 72.81054688 C-42.34210565 70.95789261 -42.33053745 69.10522465 -42.30981445 67.25268555 C-42.28086853 64.41452563 -42.28920179 61.57823409 -42.30224609 58.73999023 C-42.29600844 56.94050198 -42.28761729 55.14101962 -42.27685547 53.34155273 C-42.27979111 52.49149658 -42.28272675 51.64144043 -42.28575134 50.765625 C-42.1906926 44.83824653 -42.1906926 44.83824653 -40.45936584 42.67456055 C-38.27871928 40.96023506 -36.89183208 41.09759315 -34.15576172 41.21655273 C-32.94339844 41.2571582 -32.94339844 41.2571582 -31.70654297 41.29858398 C-31.09166016 41.33338867 -30.47677734 41.36819336 -29.84326172 41.40405273 C-29.86420898 40.71891602 -29.88515625 40.0337793 -29.90673828 39.32788086 C-29.99051571 36.18675751 -30.04211585 33.0458701 -30.09326172 29.90405273 C-30.14353516 28.28756836 -30.14353516 28.28756836 -30.19482422 26.63842773 C-30.29023421 18.81480882 -29.17911217 13.53531278 -24.23779297 7.41577148 C-16.95084893 1.31632944 -9.3043704 -0.04832513 0 0 Z M-16.84326172 31.40405273 C-16.84326172 49.88405273 -16.84326172 68.36405273 -16.84326172 87.40405273 C-1.00326172 87.40405273 14.83673828 87.40405273 31.15673828 87.40405273 C31.15673828 68.92405273 31.15673828 50.44405273 31.15673828 31.40405273 C15.31673828 31.40405273 -0.52326172 31.40405273 -16.84326172 31.40405273 Z M47.15673828 31.40405273 C47.15673828 49.88405273 47.15673828 68.36405273 47.15673828 87.40405273 C62.99673828 87.40405273 78.83673828 87.40405273 95.15673828 87.40405273 C95.15673828 68.92405273 95.15673828 50.44405273 95.15673828 31.40405273 C79.31673828 31.40405273 63.47673828 31.40405273 47.15673828 31.40405273 Z M-16.84326172 109.40405273 C-19.33485212 113.14143833 -19.30119456 114.97736856 -18.84326172 119.40405273 C-16.83053002 123.02696979 -15.3121864 124.19170948 -11.53076172 125.90405273 C-6.92929701 126.52798015 -4.80835488 125.76785827 -0.84326172 123.40405273 C1.82542807 120.40177673 2.15673828 118.93430543 2.15673828 114.90405273 C0.94342871 110.65746925 -0.30044788 109.02265426 -3.84326172 106.40405273 C-9.60782518 104.62227857 -12.27620241 105.5804682 -16.84326172 109.40405273 Z M79.15673828 108.40405273 C76.55825807 111.42164265 76.15673828 112.89993889 76.15673828 116.90405273 C77.36177878 121.12169448 78.67114888 122.7704963 82.15673828 125.40405273 C85.93273858 126.68949965 87.59491204 126.61336055 91.34423828 125.21655273 C94.17061583 123.39510943 95.6611276 122.3952741 97.15673828 119.40405273 C97.68469321 115.25583543 97.63286973 113.16926399 95.40673828 109.59155273 C90.04713496 104.38082729 85.51609647 104.48019343 79.15673828 108.40405273 Z " fill="#000000" transform="translate(216.84326171875,99.595947265625)"/>
</svg>
